<svg id="Layer_1" data-name="Layer 1" xmlns="http://www.w3.org/2000/svg" viewBox="0 0 32 32"><defs><style>.cls-1,.cls-2{fill:none;stroke:#ff7171;stroke-width:2px;}.cls-1{stroke-miterlimit:10;}.cls-2{stroke-linecap:round;stroke-linejoin:round;}</style></defs><g id="icon-cart"><path id="cart-wheels" class="cls-1" d="M16.08,27.18a2.82,2.82,0,1,1-2.82-2.82A2.82,2.82,0,0,1,16.08,27.18Zm9.21-2.82a2.82,2.82,0,1,0,2.82,2.82A2.82,2.82,0,0,0,25.29,24.36Z"/><path id="cart-frame" class="cls-2" d="M2.73,2H4.57A2.27,2.27,0,0,1,6.62,3.3L8.74,7.84m3.76,8.07-2.43,2.58a2.26,2.26,0,0,0,1.64,3.81H29.05m-5.19-6.39H13.94a2.25,2.25,0,0,1-2-1.31L8.74,7.84a2.25,2.25,0,0,1,2-3.21H27a2.25,2.25,0,0,1,2,3.21L25.9,14.6A2.25,2.25,0,0,1,23.86,15.91Z"/></g></svg>